<?xml version="1.0" encoding="UTF-8"?>
<svg
   width="24"
   height="24"
   viewBox="0 0 24 24">
  <path
     style="fill:#89a02c;stroke:#000000;stroke-width:1px;stroke-linecap:butt;stroke-linejoin:miter;stroke-opacity:1;fill-opacity:1"
     d="M 5.5689825,6.5534728 C 7.8575967,4.1448536 10.611994,2.1059881 13.840641,1.6051634 c 3.136921,-0.4865963 4.91508,0.7228213 6.596762,3.0400025 1.68168,2.3171815 2.719983,5.4365901 1.588052,7.6740461 -1.13193,2.237455 -3.607109,2.401106 -6.206203,2.254641 -2.599094,-0.146465 -3.498488,0.56341 -4.121914,2.784105 -0.623425,2.220695 -2.4639916,5.974693 -5.6127553,4.986197 C 2.9358193,21.355659 1.4006865,18.01294 1.5061318,14.690831 1.6112384,11.379395 2.855403,9.4093405 5.5689825,6.5534728 Z" />
  <path
     style="fill:none;stroke:#000000;stroke-width:1px;stroke-linecap:butt;stroke-linejoin:miter;stroke-opacity:1"
     d="m 7.6439461,8.6639515 c 1.188929,-1.5936763 2.6447929,-2.5050132 4.2145429,-3.4249147 1.494669,-0.8759024 4.353274,-1.262991 5.834068,0.3457265 1.737802,1.8879284 2.054505,3.0888999 1.021769,4.8404877 -0.839373,1.423631 -2.400978,1.286511 -4.532802,1.92736 -2.041753,0.613773 -2.681573,0.75957 -3.894457,2.237366 C 8.5466936,16.710475 7.6203147,19.441139 5.9845403,18.787095 4.3487664,18.133051 4.2653659,16.325722 4.9531927,14.255469 5.5717603,12.393676 6.2342488,10.553553 7.6439461,8.6639515 Z" />
</svg>
