<?xml version="1.0" encoding="UTF-8" standalone="no"?>
<svg
   width="48"
   height="48"
   viewBox="0 0 48 48"
   version="1.1"
   id="svg1093"
   sodipodi:docname="set_prominence.svg"
   inkscape:version="1.2.2 (b0a8486541, 2022-12-01)"
   xmlns:inkscape="http://www.inkscape.org/namespaces/inkscape"
   xmlns:sodipodi="http://sodipodi.sourceforge.net/DTD/sodipodi-0.dtd"
   xmlns="http://www.w3.org/2000/svg"
   xmlns:svg="http://www.w3.org/2000/svg">
  <defs
     id="defs11" />
  <sodipodi:namedview
     id="namedview1095"
     pagecolor="#ffffff"
     bordercolor="#666666"
     borderopacity="1.0"
     inkscape:showpageshadow="2"
     inkscape:pageopacity="0.0"
     inkscape:pagecheckerboard="0"
     inkscape:deskcolor="#d1d1d1"
     showgrid="false"
     inkscape:zoom="16"
     inkscape:cx="31.59375"
     inkscape:cy="23.5625"
     inkscape:window-width="2671"
     inkscape:window-height="1576"
     inkscape:window-x="204"
     inkscape:window-y="234"
     inkscape:window-maximized="0"
     inkscape:current-layer="svg1093"
     showguides="true">
    <inkscape:grid
       type="xygrid"
       id="grid1248" />
  </sodipodi:namedview>
  <g
     transform="matrix(2.0385048,0,0,2.0957569,-0.47284701,-2173.8038)"
     id="g1091"
     style="stroke-width:0.483809">
    <path
       style="fill:#89a02c;stroke:none;stroke-width:0.483809px;stroke-linecap:butt;stroke-linejoin:miter;stroke-opacity:1"
       d="M 23,1055.3622 H 1 l 5,-7 5,4 6,-10 6,10 z"
       id="path1087" />
    <path
       style="fill:none;stroke:#000000;stroke-width:0.72571306;stroke-linecap:butt;stroke-linejoin:miter;stroke-opacity:1;stroke-dasharray:none"
       d="m 1,1055.3622 5,-7 5,4 6,-10 6,10"
       id="path1089" />
  </g>
  <ellipse
     style="fill:#5599ff;fill-opacity:1;stroke-width:0.617142;stroke-linecap:round"
     id="path350"
     cx="20.682873"
     cy="26.251339"
     rx="1.3258252"
     ry="1.1490486"
     transform="matrix(2.2627417,0,0,2.6108557,-24.849291,-36.846916)" />
  <ellipse
     style="fill:#5599ff;fill-opacity:1;stroke-width:0.617142;stroke-linecap:round"
     id="path350-3"
     cx="20.682873"
     cy="26.251339"
     rx="1.3258252"
     ry="1.1490486"
     transform="matrix(2.2627417,0,0,2.6108557,-12.618264,-58.312323)" />
  <path
     style="fill:none;stroke:#ff0000;stroke-width:1.68574;stroke-linecap:butt;stroke-linejoin:miter;stroke-dasharray:none;stroke-opacity:1;marker-end:url(#TriangleStart)"
     d="m -11.851852,36.376068 0.04558,-16.820512"
     id="path240"
     transform="matrix(-0.90529668,0,0,0.87461182,23.489769,-0.87539333)" />
  <path
     style="fill:none;stroke:#ff0000;stroke-width:1.58974;stroke-linecap:butt;stroke-linejoin:miter;stroke-dasharray:none;stroke-opacity:1"
     d="m -24.11396,10.02849 h 8.478632"
     id="path1157"
     transform="matrix(0.94354844,0,0,-0.94354844,52.922976,18.938503)" />
  <path
     style="fill:none;stroke:#ff0000;stroke-width:0.784566;stroke-linecap:butt;stroke-linejoin:miter;stroke-dasharray:none;stroke-opacity:1"
     d="m -24.11396,10.02849 h 8.478632"
     id="path1157-3"
     transform="matrix(1.9118809,0,0,-1.9118809,68.053727,50.86482)" />
  <path
     style="fill:#ff0000;stroke:none;stroke-width:1.02242px;stroke-linecap:butt;stroke-linejoin:miter;stroke-opacity:1"
     d="m 13.187727,-11.0625 -3.289467,6.0897048 6.602514,0 z"
     id="path348"
     transform="matrix(0.97092489,0,0,0.98526861,21.365995,21.125669)"
     sodipodi:nodetypes="cccc" />
</svg>
